<svg width="94" height="38" viewBox="0 0 94 38" fill="none" xmlns="http://www.w3.org/2000/svg">
<path d="M16.2719 10.936L5.90394 35.32C5.67994 35.928 5.32794 36.408 4.84794 36.76C4.39994 37.08 3.90394 37.24 3.35994 37.24C2.49594 37.24 1.85594 37 1.43994 36.52C1.02394 36.04 0.815938 35.448 0.815938 34.744C0.815938 34.456 0.863938 34.152 0.959938 33.832L12.9119 5.128C13.1679 4.488 13.5519 3.992 14.0639 3.64C14.6079 3.288 15.1839 3.144 15.7919 3.208C16.3679 3.208 16.8959 3.384 17.3759 3.736C17.8879 4.056 18.2559 4.52 18.4799 5.128L30.2879 33.256C30.4479 33.672 30.5279 34.056 30.5279 34.408C30.5279 35.272 30.2399 35.96 29.6639 36.472C29.1199 36.984 28.5119 37.24 27.8399 37.24C27.2639 37.24 26.7359 37.064 26.2559 36.712C25.8079 36.36 25.4559 35.88 25.1999 35.272L14.8799 11.224L16.2719 10.936ZM7.39194 29.464L10.0319 23.944H22.9919L23.9039 29.464H7.39194ZM44.3842 37.48C42.1122 37.48 40.0642 36.984 38.2402 35.992C36.4482 35 35.0242 33.704 33.9682 32.104C32.9442 30.504 32.4322 28.792 32.4322 26.968C32.4322 25.368 32.7042 23.912 33.2482 22.6C33.8242 21.256 34.6722 20.072 35.7922 19.048C36.9442 18.024 38.4002 17.16 40.1602 16.456L43.9042 20.344C41.6642 20.824 40.1602 21.56 39.3922 22.552C38.6562 23.512 38.2882 24.696 38.2882 26.104C38.2882 27.064 38.5282 28.008 39.0082 28.936C39.4882 29.832 40.2722 30.584 41.3602 31.192C42.4482 31.768 43.9042 32.056 45.7282 32.056C47.2322 32.056 48.5762 31.72 49.7602 31.048C50.9762 30.344 52.0162 29.432 52.8802 28.312C53.7762 27.16 54.4962 25.896 55.0402 24.52C55.6162 23.112 56.0002 21.688 56.1922 20.248C56.2562 19.736 56.4482 19.336 56.7682 19.048C57.1202 18.76 57.6962 18.616 58.4962 18.616C59.3282 18.616 59.9842 18.952 60.4642 19.624C60.9442 20.296 61.1202 21.08 60.9922 21.976C60.7042 23.896 60.1442 25.784 59.3122 27.64C58.5122 29.464 57.4242 31.128 56.0482 32.632C54.7042 34.104 53.0562 35.288 51.1042 36.184C49.1842 37.048 46.9442 37.48 44.3842 37.48ZM61.4722 37.096C61.0882 37.096 60.7522 37.048 60.4642 36.952C60.2082 36.856 60.0002 36.744 59.8402 36.616C57.5362 34.632 55.4242 32.808 53.5042 31.144C51.6162 29.448 49.8722 27.832 48.2722 26.296C46.6722 24.76 45.1682 23.192 43.7602 21.592C42.6402 20.312 41.6162 19.16 40.6882 18.136C39.7602 17.112 39.0082 16.12 38.4322 15.16C37.8882 14.168 37.6162 13.08 37.6162 11.896C37.6162 10.328 38.0322 8.872 38.8642 7.528C39.7282 6.152 40.9442 5.048 42.5122 4.216C44.0802 3.352 45.9362 2.92 48.0802 2.92C50.2882 2.92 52.2722 3.288 54.0322 4.024C55.8242 4.76 57.0242 5.736 57.6322 6.952C57.6642 6.984 57.7442 7.192 57.8722 7.576C58.0002 7.928 58.0642 8.344 58.0642 8.824C58.0642 9.432 57.8402 9.96 57.3922 10.408C56.9442 10.856 56.3362 11.08 55.5682 11.08C55.0562 11.08 54.6562 10.984 54.3682 10.792C54.0802 10.6 53.8562 10.408 53.6962 10.216C52.9922 9.288 52.1762 8.648 51.2482 8.296C50.3522 7.912 49.2962 7.72 48.0802 7.72C46.6402 7.72 45.5362 8.104 44.7682 8.872C44.0322 9.64 43.6642 10.552 43.6642 11.608C43.6642 12.6 44.0162 13.592 44.7202 14.584C45.4242 15.544 46.2242 16.456 47.1202 17.32C48.0482 18.184 48.8162 18.952 49.4242 19.624C50.4162 20.68 51.5202 21.816 52.7362 23.032C53.9842 24.216 55.2322 25.384 56.4802 26.536C57.7282 27.656 58.8802 28.712 59.9362 29.704C61.0242 30.664 61.9042 31.464 62.5762 32.104C62.9922 32.488 63.2962 32.872 63.4882 33.256C63.7122 33.64 63.8242 34.104 63.8242 34.648C63.8242 35.064 63.6322 35.576 63.2482 36.184C62.8962 36.792 62.3042 37.096 61.4722 37.096ZM79.4234 37.48C77.1834 37.48 75.1674 37.208 73.3754 36.664C71.5834 36.088 69.8714 35.096 68.2394 33.688C67.8234 33.336 67.5034 32.936 67.2794 32.488C67.0554 32.04 66.9434 31.592 66.9434 31.144C66.9434 30.408 67.1994 29.768 67.7114 29.224C68.2554 28.648 68.9274 28.36 69.7274 28.36C70.3354 28.36 70.8794 28.552 71.3594 28.936C72.5754 29.928 73.7754 30.68 74.9594 31.192C76.1754 31.704 77.6634 31.96 79.4234 31.96C80.6074 31.96 81.6954 31.784 82.6874 31.432C83.6794 31.048 84.4794 30.552 85.0874 29.944C85.6954 29.304 85.9994 28.584 85.9994 27.784C85.9994 26.824 85.7114 26.008 85.1354 25.336C84.5594 24.664 83.6794 24.104 82.4954 23.656C81.3114 23.176 79.8074 22.808 77.9834 22.552C76.2554 22.296 74.7354 21.912 73.4234 21.4C72.1114 20.856 71.0074 20.184 70.1114 19.384C69.2474 18.552 68.5914 17.592 68.1434 16.504C67.6954 15.384 67.4714 14.136 67.4714 12.76C67.4714 10.68 67.9994 8.904 69.0554 7.432C70.1434 5.96 71.5994 4.84 73.4234 4.072C75.2474 3.304 77.2634 2.92 79.4714 2.92C81.5514 2.92 83.4714 3.24 85.2314 3.88C87.0234 4.488 88.4794 5.272 89.5994 6.232C90.5274 6.968 90.9914 7.816 90.9914 8.776C90.9914 9.48 90.7194 10.12 90.1754 10.696C89.6314 11.272 88.9914 11.56 88.2554 11.56C87.7754 11.56 87.3434 11.416 86.9594 11.128C86.4474 10.68 85.7594 10.264 84.8954 9.88C84.0314 9.464 83.1194 9.128 82.1594 8.872C81.1994 8.584 80.3034 8.44 79.4714 8.44C78.0954 8.44 76.9274 8.616 75.9674 8.968C75.0394 9.32 74.3354 9.8 73.8554 10.408C73.3754 11.016 73.1354 11.72 73.1354 12.52C73.1354 13.48 73.4074 14.28 73.9514 14.92C74.5274 15.528 75.3434 16.024 76.3994 16.408C77.4554 16.76 78.7194 17.08 80.1914 17.368C82.1114 17.72 83.7914 18.136 85.2314 18.616C86.7034 19.096 87.9194 19.72 88.8794 20.488C89.8394 21.224 90.5594 22.168 91.0394 23.32C91.5194 24.44 91.7594 25.816 91.7594 27.448C91.7594 29.528 91.1834 31.32 90.0314 32.824C88.8794 34.328 87.3594 35.48 85.4714 36.28C83.6154 37.08 81.5994 37.48 79.4234 37.48Z" fill="#212121"/>
</svg>
